<?xml version="1.0" encoding="UTF-8"?>
<svg version="1.1" xmlns="http://www.w3.org/2000/svg" width="534" height="129">
<path d="M0 0 C16.45906334 11.57384898 25.65464427 26.88422595 29.50390625 46.48046875 C30.77414026 60.70708963 29.13087506 75.39183092 21.12890625 87.54296875 C18.08622397 89.43436584 15.65965801 89.5475565 12.1328125 89.70703125 C8.533733 88.57814628 6.7793159 86.05470714 4.81640625 82.98046875 C3.10218195 79.12638172 1.78419897 75.16279142 0.4609375 71.16015625 C-0.12062859 69.45582932 -0.12062859 69.45582932 -0.71394348 67.71707153 C-1.94543313 64.10061613 -3.15886995 60.4784223 -4.37109375 56.85546875 C-5.59759538 53.22667752 -6.82777795 49.59916632 -8.06037903 45.97244263 C-8.82488416 43.71908958 -9.58519913 41.46430961 -10.34086609 39.20797729 C-10.6849501 38.18656647 -11.02903412 37.16515564 -11.38354492 36.11279297 C-11.68379074 35.21599823 -11.98403656 34.31920349 -12.29338074 33.39523315 C-13.84258655 28.98797096 -13.84258655 28.98797096 -16.93359375 25.66796875 C-20.06395904 24.71146825 -22.06253971 25.05079308 -25.18359375 25.98046875 C-27.71130619 28.78559044 -28.93396702 31.58450953 -30.14135742 35.13427734 C-30.49570358 36.16410736 -30.85004974 37.19393738 -31.21513367 38.25497437 C-31.77766594 39.92507065 -31.77766594 39.92507065 -32.3515625 41.62890625 C-32.75006912 42.79185211 -33.14857574 43.95479797 -33.55915833 45.15298462 C-34.83665035 48.88484832 -36.10430839 52.61995858 -37.37109375 56.35546875 C-40.62428726 65.90322813 -43.89320591 75.44546327 -47.18359375 84.98046875 C-47.75040863 86.63109314 -47.75040863 86.63109314 -48.32867432 88.31506348 C-49.38877281 91.38781779 -50.46495285 94.45440383 -51.546875 97.51953125 C-51.85707077 98.42496674 -52.16726654 99.33040222 -52.48686218 100.26327515 C-54.34509534 105.46096597 -56.0029672 109.39015547 -61.18359375 111.98046875 C-69.08510338 112.68087958 -73.54975461 108.01750949 -79.32421875 103.19140625 C-91.85449338 91.59843563 -98.11124262 75.46609662 -99.44140625 58.73828125 C-100.024876 41.58427053 -94.53794592 24.43787013 -82.93359375 11.60546875 C-61.31849283 -11.08927418 -26.98617626 -16.85288504 0 0 Z " fill="#FD3F00" transform="translate(99.18359375,9.01953125)"/>
<path d="M0 0 C6.93 0 13.86 0 21 0 C25.49971285 10.1243539 25.49971285 10.1243539 26.91259766 14.09350586 C27.23522079 14.99430374 27.55784393 15.89510162 27.89024353 16.82319641 C28.39703392 18.25456184 28.39703392 18.25456184 28.9140625 19.71484375 C29.28177261 20.74405441 29.64948273 21.77326508 30.02833557 22.83366394 C31.23048432 26.20045645 32.42783608 29.56893211 33.625 32.9375 C35.32037366 37.69445327 37.01769417 42.45071134 38.71484375 47.20703125 C39.1476918 48.4212677 39.58053986 49.63550415 40.02650452 50.88653564 C43.07712276 59.43747311 46.15745868 67.97728029 49.25390625 76.51171875 C50.09102745 78.82233093 50.92810508 81.13295889 51.76513672 83.44360352 C52.97124394 86.77266588 54.1788115 90.10115828 55.39117432 93.427948 C56.50849725 96.49472273 57.62006524 99.56352699 58.73046875 102.6328125 C59.06389786 103.54282516 59.39732697 104.45283783 59.74085999 105.39042664 C60.04060226 106.22209854 60.34034454 107.05377045 60.64916992 107.91064453 C60.9116301 108.63236847 61.17409027 109.35409241 61.44450378 110.09768677 C62 112 62 112 62 115 C55.73 115 49.46 115 43 115 C33 88.63636364 33 88.63636364 33 85 C18.48 85 3.96 85 -11 85 C-11.99 88.63 -12.98 92.26 -14 96 C-15.19276704 99.41994661 -16.40447659 102.80370535 -17.6875 106.1875 C-19.3271875 110.5496875 -19.3271875 110.5496875 -21 115 C-27.6 115 -34.2 115 -41 115 C-33.39473011 92.55791366 -25.35015922 70.2828556 -17.26513672 48.00994873 C-13.4650365 37.53615556 -9.69822239 27.05048499 -5.9375 16.5625 C-5.63187134 15.71036926 -5.32624268 14.85823853 -5.01135254 13.98028564 C-3.34009423 9.3204791 -1.66987561 4.66030261 0 0 Z M10 24 C7.85723214 30.06663973 5.72173312 36.13580185 3.59130859 42.20678711 C2.8654492 44.27248226 2.13791745 46.33759054 1.40869141 48.40209961 C0.36182223 51.36680462 -0.67904752 54.33355656 -1.71875 57.30078125 C-2.04685669 58.2258699 -2.37496338 59.15095856 -2.7130127 60.1040802 C-3.01332397 60.96474594 -3.31363525 61.82541168 -3.62304688 62.7121582 C-4.02275696 63.84800102 -4.02275696 63.84800102 -4.43054199 65.00679016 C-5.13735376 67.13527039 -5.13735376 67.13527039 -5 70 C5.56 70 16.12 70 27 70 C25.55462517 63.14919552 25.55462517 63.14919552 23.57958984 56.58178711 C23.31947113 55.84169907 23.05935242 55.10161102 22.79135132 54.33909607 C22.51731476 53.5762178 22.2432782 52.81333954 21.9609375 52.02734375 C21.67521881 51.21882462 21.38950012 50.41030548 21.09512329 49.57728577 C20.19331568 47.02892104 19.28429921 44.48319993 18.375 41.9375 C17.75733121 40.19613418 17.14013932 38.45459913 16.5234375 36.71289062 C15.02112481 32.47328623 13.51234734 28.23603467 12 24 C11.34 24 10.68 24 10 24 Z " fill="#FFFFFF" transform="translate(188,7)"/>
<path d="M0 0 C6.80200373 6.5585636 9.14250089 14.62921342 9.34057617 23.89672852 C9.34010516 26.55875229 9.3240396 29.21739008 9.29296875 31.87890625 C9.28736236 33.30093434 9.2830972 34.72296828 9.28010559 36.14500427 C9.26873869 39.85882008 9.23934372 43.57227494 9.20599365 47.28594971 C9.17511511 51.08706787 9.16156255 54.88824526 9.14648438 58.68945312 C9.11446445 66.12648444 9.06176527 73.56314533 9 81 C3.39 81 -2.22 81 -8 81 C-8.495 76.545 -8.495 76.545 -9 72 C-9.53367187 72.54269531 -10.06734375 73.08539063 -10.6171875 73.64453125 C-17.8673653 80.60620717 -23.99536285 83.0419391 -34 83.375 C-43.21316218 83.09151809 -51.47674303 80.79807268 -58 74 C-63.79066358 66.4763641 -64.09698154 58.18593887 -63 49 C-61.4326593 43.25600278 -58.12285882 39.08715597 -53 36 C-44.77749455 31.78296185 -36.0231938 30.64404969 -27 29.375 C-24.87561831 29.0715857 -22.75202017 28.76453453 -20.62963867 28.44741821 C-18.72576699 28.16346634 -16.81995086 27.89264304 -14.9140625 27.62255859 C-11.89017396 27.25268732 -11.89017396 27.25268732 -10 25 C-9.50129228 19.81343975 -10.04895771 16.32819536 -13 12 C-18.27868075 7.93947635 -24.64251661 8.26483766 -31 9 C-37.49152458 10.7907654 -40.55041425 14.39442316 -44 20 C-46.46038493 19.55102465 -48.91789621 19.09131167 -51.375 18.625 C-52.42300781 18.43550781 -52.42300781 18.43550781 -53.4921875 18.2421875 C-58.7734375 17.2265625 -58.7734375 17.2265625 -61 15 C-56.16055857 4.62609098 -50.53670981 -0.8966489 -39.8125 -5.3125 C-26.35997266 -8.60089557 -11.73003692 -7.98209766 0 0 Z M-27 43 C-28.16015625 43.22816406 -29.3203125 43.45632812 -30.515625 43.69140625 C-36.55779567 45.01977292 -41.04185321 46.07906075 -45 51 C-46.34491506 55.25116828 -46.4858911 58.68523583 -44.9375 62.875 C-41.70669858 66.41845962 -38.30301446 67.84896878 -33.5625 68.3984375 C-31.7990625 68.38683594 -31.7990625 68.38683594 -30 68.375 C-28.824375 68.38273437 -27.64875 68.39046875 -26.4375 68.3984375 C-20.11466973 67.66556399 -16.08709466 64.74986677 -12 60 C-9.20134926 55.36013167 -8.6600009 52.01330155 -8.8125 46.625 C-8.83957031 45.37976563 -8.86664062 44.13453125 -8.89453125 42.8515625 C-8.94673828 41.44003906 -8.94673828 41.44003906 -9 40 C-14.95002837 40 -21.17028258 41.83816195 -27 43 Z " fill="#FFFFFF" transform="translate(525,41)"/>
<path d="M0 0 C5.48388088 4.59088984 9.53576863 10.25117642 10.625 17.375 C8.29501935 18.11861085 5.992687 18.77223719 3.625 19.375 C2.87992187 19.58511719 2.13484375 19.79523437 1.3671875 20.01171875 C-1.09215307 20.53276548 -2.89076637 20.80566094 -5.375 20.375 C-7.34803946 18.52854935 -8.61844087 16.6796724 -9.98828125 14.35546875 C-11.651604 11.97996273 -12.63208823 11.29877858 -15.375 10.375 C-24.59494036 9.33858553 -24.59494036 9.33858553 -33.125 12.1875 C-35.5157431 14.35871615 -35.5157431 14.35871615 -37.375 17.375 C-37.28870597 22.09042033 -37.28870597 22.09042033 -34.8828125 25.94140625 C-31.23671514 28.02570178 -27.43826082 28.83812641 -23.375 29.8125 C-21.65821215 30.24747383 -19.94206234 30.6849738 -18.2265625 31.125 C-17.39415039 31.33769531 -16.56173828 31.55039063 -15.70410156 31.76953125 C4.44808562 37.00825496 4.44808562 37.00825496 10.125 45.625 C13.42519281 52.54475912 13.25111745 59.85499185 10.75390625 66.98828125 C6.97299238 74.98183963 0.76221194 79.35260699 -7.375 82.375 C-20.26258622 86.31344635 -34.18305374 85.17044153 -46.25 79.1875 C-52.08926394 75.67970261 -56.54049565 69.97921567 -58.375 63.375 C-58.375 62.055 -58.375 60.735 -58.375 59.375 C-45.71969201 56.52309961 -45.71969201 56.52309961 -41.375 57.375 C-39.90868493 59.28431056 -38.81929498 61.28837608 -37.65625 63.39453125 C-36.07969175 65.83146732 -34.35458098 67.04344952 -31.59765625 67.9765625 C-25.25306788 69.11390523 -18.86053482 69.23208097 -12.75 67.125 C-10.25951488 65.2899057 -8.76083785 64.14667569 -7.375 61.375 C-6.70833333 57.875 -6.70833333 57.875 -7.375 54.375 C-11.02964659 50.72035341 -14.47474826 49.51796336 -19.4375 48.3125 C-20.42387451 48.06391235 -20.42387451 48.06391235 -21.43017578 47.81030273 C-24.51316837 47.03824982 -27.6047688 46.32382055 -30.70703125 45.6328125 C-40.01295311 43.50642727 -47.94215498 40.68405708 -53.375 32.375 C-56.65628511 25.82524731 -57.18760722 19.47181811 -55.375 12.375 C-52.27508464 5.34778973 -47.24912155 0.66950987 -40.375 -2.625 C-27.68440224 -7.25891121 -11.57394206 -7.92132917 0 0 Z " fill="#FFFFFF" transform="translate(401.375,39.625)"/>
<path d="M0 0 C6.27 0 12.54 0 19 0 C34.34042553 44.63829787 34.34042553 44.63829787 40 63 C41.67009286 59.86721503 42.8408957 56.71367287 43.95532227 53.34521484 C44.3323378 52.21078949 44.70935333 51.07636414 45.09779358 49.90756226 C45.49993576 48.68767609 45.90207794 47.46778992 46.31640625 46.2109375 C46.73683064 44.94339002 47.15756585 43.67594559 47.57859802 42.40859985 C48.68386049 39.07953728 49.78577252 35.74937641 50.88671875 32.41888428 C52.44087588 27.71837308 53.99795244 23.01883036 55.55711365 18.31997681 C56.38677074 15.8187108 57.21482381 13.31691209 58.04115295 10.81454468 C58.41501633 9.68642365 58.7888797 8.55830261 59.17407227 7.39599609 C59.5033522 6.39990326 59.83263214 5.40381042 60.17189026 4.37753296 C61 2 61 2 62 0 C68.27 0 74.54 0 81 0 C78.78686898 7.62364467 76.26125156 15.08860379 73.578125 22.55859375 C73.15505066 23.74236099 72.73197632 24.92612823 72.29608154 26.14576721 C71.40300398 28.64310521 70.50900489 31.14008711 69.61328125 33.63647461 C68.26511454 37.39390758 66.92150533 41.15296234 65.578125 44.91210938 C61.72210962 55.69285153 57.85275514 66.46895064 53.921875 77.22265625 C53.63580383 78.01071152 53.34973267 78.79876678 53.05499268 79.61070251 C51.11705984 84.88294016 51.11705984 84.88294016 50 86 C48.58429877 86.08651611 47.164405 86.10704904 45.74609375 86.09765625 C44.89208984 86.09443359 44.03808594 86.09121094 43.15820312 86.08789062 C42.26037109 86.07951172 41.36253906 86.07113281 40.4375 86.0625 C39.53580078 86.05798828 38.63410156 86.05347656 37.70507812 86.04882812 C35.46998366 86.03700223 33.23503507 86.01968245 31 86 C27.3096917 77.39133797 23.99452664 68.68871778 20.83984375 59.87109375 C20.36359573 58.5468648 19.88707311 57.22273458 19.41029358 55.8986969 C18.16803812 52.44671661 16.9293319 48.99347384 15.69146729 45.53991699 C14.43896525 42.04734958 13.18326799 38.55593163 11.92773438 35.06445312 C9.67442005 28.79774647 7.42336098 22.53023651 5.17721558 16.26095581 C4.39326306 14.08936162 3.60040199 11.92096256 2.7986145 9.75588989 C2.43138275 8.76402679 2.064151 7.7721637 1.68579102 6.75024414 C1.35990494 5.87880264 1.03401886 5.00736115 0.69825745 4.10951233 C0 2 0 2 0 0 Z " fill="#FFFFFF" transform="translate(235,36)"/>
<path d="M0 0 C5.94 0 11.88 0 18 0 C18 6.93 18 13.86 18 21 C23.94 21 29.88 21 36 21 C36 25.62 36 30.24 36 35 C30.06 35 24.12 35 18 35 C18.06886252 42.17197446 18.1568244 49.34336516 18.26245117 56.51489258 C18.29569417 58.95427983 18.32372801 61.39374388 18.34643555 63.83325195 C18.37999217 67.34099032 18.43231049 70.84802525 18.48828125 74.35546875 C18.49467117 75.44522507 18.5010611 76.53498138 18.50764465 77.65776062 C18.52155574 84.86926284 18.52155574 84.86926284 22 91 C24.11873168 91.77602302 24.11873168 91.77602302 26.4375 91.75 C29.43903759 91.89220483 32.10142573 92.18126832 35 93 C37.29612756 102.41002278 37.29612756 102.41002278 37 107 C26.61765974 109.91434112 18.22429315 109.34267595 8.625 104.1875 C2.84090238 99.36741865 1.07824467 94.18396051 0 87 C-0.25013479 82.91184571 -0.2340536 78.8406121 -0.1953125 74.74609375 C-0.1924826 73.60463394 -0.18965271 72.46317413 -0.18673706 71.28712463 C-0.17561476 67.67047277 -0.15052481 64.05407599 -0.125 60.4375 C-0.11495993 57.97331089 -0.10583588 55.50911786 -0.09765625 53.04492188 C-0.07570146 47.02985085 -0.04122665 41.01496855 0 35 C-3.96 35 -7.92 35 -12 35 C-12 30.38 -12 25.76 -12 21 C-8.04 21 -4.08 21 0 21 C0 14.07 0 7.14 0 0 Z " fill="#FFFFFF" transform="translate(425,15)"/>
<path d="M0 0 C5.61 0 11.22 0 17 0 C17 28.71 17 57.42 17 87 C11.39 87 5.78 87 0 87 C0 58.29 0 29.58 0 0 Z " fill="#FFFFFF" transform="translate(320,35)"/>
<path d="M0 0 C5.42274326 2.30210799 11.84324163 7.77242076 14.484375 13.0546875 C15.16907741 20.01582867 15.16907741 20.01582867 12.671875 23.8046875 C4.76866264 29.38342564 -4.50029567 31.18228894 -14.015625 31.4296875 C-15.3046875 31.47867188 -16.59375 31.52765625 -17.921875 31.578125 C-22.40896665 30.92457035 -23.80588146 29.62336861 -26.515625 26.0546875 C-27.41371269 23.26533278 -27.22402978 20.88830661 -26.515625 18.0546875 C-24.515625 15.5546875 -24.515625 15.5546875 -21.515625 13.0546875 C-20.21661794 11.72850456 -18.92550487 10.39456223 -17.640625 9.0546875 C-7.21149406 -1.21849382 -7.21149406 -1.21849382 0 0 Z " fill="#FD3F00" transform="translate(81.515625,97.9453125)"/>
<path d="M0 0 C2.941381 2.46115553 4.57817389 4.21508291 5.47265625 8 C5.76922957 12.01514651 5.14633646 13.81900491 2.625 16.9375 C-1.51904393 20.19353452 -4.81493742 20.55731959 -10 20 C-12.87472735 18.75011855 -14.44101438 17.74531416 -16.3125 15.25 C-17.32815881 11.9260257 -17.41796486 9.46313738 -17 6 C-12.9216641 -1.02728647 -7.43982592 -2.08471479 0 0 Z " fill="#FFFFFF" transform="translate(335,3)"/>
</svg>
